<?xml version="1.0" encoding="UTF-8" standalone="no"?>
<!-- Created with Inkscape (http://www.inkscape.org/) -->

<svg
   width="115.35mm"
   height="26.766mm"
   version="1.1"
   viewBox="0 0 115.35 26.766"
   id="svg7"
   sodipodi:docname="TuneBox.svg"
   inkscape:version="1.4 (e7c3feb1, 2024-10-09)"
   xmlns:inkscape="http://www.inkscape.org/namespaces/inkscape"
   xmlns:sodipodi="http://sodipodi.sourceforge.net/DTD/sodipodi-0.dtd"
   xmlns="http://www.w3.org/2000/svg"
   xmlns:svg="http://www.w3.org/2000/svg">
  <sodipodi:namedview
     id="namedview7"
     pagecolor="#ffffff"
     bordercolor="#000000"
     borderopacity="0.25"
     inkscape:showpageshadow="2"
     inkscape:pageopacity="0.0"
     inkscape:pagecheckerboard="false"
     inkscape:deskcolor="#d1d1d1"
     inkscape:document-units="mm"
     inkscape:zoom="1.5491392"
     inkscape:cx="187.52349"
     inkscape:cy="51.964341"
     inkscape:window-width="1512"
     inkscape:window-height="916"
     inkscape:window-x="0"
     inkscape:window-y="38"
     inkscape:window-maximized="1"
     inkscape:current-layer="svg7" />
  <defs
     id="defs6">
    <linearGradient
       id="linearGradient67"
       x1="101.69"
       x2="101.69"
       y1="39.962"
       y2="152.72"
       gradientTransform="translate(2.4804 53.328)"
       gradientUnits="userSpaceOnUse">
      <stop
         stop-color="#30077b"
         offset=".46929"
         id="stop1" />
      <stop
         stop-color="#0076a3"
         offset=".46929"
         id="stop2" />
      <stop
         stop-color="#0077b6"
         offset=".52119"
         id="stop3" />
      <stop
         stop-color="#e59500"
         offset=".52119"
         id="stop4" />
      <stop
         stop-color="#ed9a00"
         offset=".5731"
         id="stop5" />
      <stop
         stop-color="#bf095e"
         offset=".5731"
         id="stop6" />
    </linearGradient>
  </defs>
  <g
     transform="translate(-46.496 -136.27)"
     id="g7"
     inkscape:export-filename="TuneBox-inkscape.svg"
     inkscape:export-xdpi="96"
     inkscape:export-ydpi="96">
    <path
       d="m49.688 137.2c-1.4817 0.0304-2.5887 1.5732-2.2422 2.9922 0.19091 1.3448 1.6073 2.114 2.8785 1.9492h4.0492c0.01696 5.745-0.03365 11.493 0.0248 17.236 0.05248 1.4611 1.3901 2.6648 2.8502 2.5569 1.4987 0.0917 2.8127-1.21 2.8242-2.6934 0.02746-5.6994 0.0038-11.4 0.01172-17.1 1.6952-0.0485 3.4049 0.0945 5.092-0.0657 1.7849-0.28763 2.4714-2.7144 1.3241-4.0183-0.92748-1.1793-2.5559-0.81488-3.8512-0.86719-4.3204 7e-3 -8.6414-0.0132-12.961 0.01zm65.486 2e-3c-1.4534 1.1e-4 -2.9294 0.97095-3.1399 2.4791-0.22665 1.826-0.0392 3.6817-0.10035 5.519-0.056 0.34193 0.15528 1.7603-0.20312 0.88672-1.5248-2.7341-4.719-4.2503-7.7983-4.045-3.0457 0.0214-6.0693 1.7504-7.3834 4.5411-0.54442-2.317-2.6382-4.0972-4.9958-4.3359-2.3586-0.37334-5.0701 0.27024-6.5335 2.2793-0.08015-1.276-1.2273-2.2957-2.5003-2.2491-1.1569-0.10873-2.3538 0.57663-2.736 1.6944-0.6753-2.1957-4.2513-2.3159-5.1211-0.21679-0.51147 1.3672-0.17616 2.8681-0.27344 4.2922-0.0425 2.2039 0.08388 4.4182-0.06055 6.616-0.23499 1.6471-1.9429 2.7235-3.5399 2.5129-1.2686 0.0222-2.3429-1.0416-2.3957-2.2938-0.11888-3.3923 0.0332-6.7951-0.07534-10.188-0.05842-1.4511-1.446-2.5802-2.8722-2.4359-1.3682-0.0467-2.611 1.0792-2.6539 2.457-0.06022 3.7248-0.02764 7.4555-0.01571 11.182 0.02451 2.1525 1.0734 4.3944 3.0815 5.3553 1.9556 0.93144 4.3264 1.0059 6.3462 0.2326 0.90586-0.3959 1.745-0.97924 2.3379-1.7793 0.10193 1.3461 1.3963 2.3164 2.707 2.2285 1.0931 0.0353 2.1955-0.63604 2.5391-1.6973 0.56222 1.8283 3.1488 2.2014 4.5078 1.0664 1.2129-1.124 0.79329-2.9335 0.87109-4.3965 0.04911-2.2952-0.10057-4.6014 0.0787-6.8897 0.1497-1.5413 1.3916-2.9923 3.0111-2.9931 1.2877-0.16788 2.6335 0.65745 2.8625 1.9783 0.28874 1.7262 0.06862 3.4964 0.13751 5.2405 0.05165 1.8438-0.10345 3.7012 0.07656 5.537 0.14051 1.2808 1.3515 2.2203 2.6175 2.1518 1.2939 0.12669 2.628-0.74015 2.8079-2.0736 0.11327-0.53411 0.08435-1.0829 0.08789-1.625 1.5079 2.5831 4.5377 3.8826 7.4434 3.916 2.6715 0.0879 5.6847-0.50147 7.4395-2.6957 0.29378-0.64472 0.29385-0.19131 0.42184 0.25817 0.44583 1.5297 2.1535 2.1518 3.6141 2.0508 2.6755-0.0502 5.3601 0.10585 8.0298-0.0883 2.425-0.23505 4.9109-1.3714 6.2116-3.5113 1.5191 2.708 4.7031 4.0563 7.7168 3.9961 2.4471 0.0235 5-0.77938 6.6934-2.6113 0.0371 1.561 1.701 2.7388 3.1922 2.3143 1.6539-0.35563 2.2786-2.1447 3.1841-3.3618 0.6096-0.93664 1.2192-1.8733 1.8288-2.8099 1.1988 1.7314 2.2506 3.5718 3.5449 5.2324 1.0786 1.3969 3.5478 1.3571 4.4242-0.23826 0.71865-1.1682 0.29966-2.7045-0.6631-3.6009-1.3364-1.6604-2.6728-3.3208-4.0092-4.9811 1.5435-1.9552 3.156-3.8631 4.6607-5.8448 0.84253-1.4116 0.0827-3.5374-1.588-3.8761-1.2873-0.34499-2.587 0.40128-3.2537 1.4927-1.0583 1.542-2.0752 3.1127-3.1178 4.6656-1.2026-1.7311-2.2673-3.5644-3.5606-5.2285-1.0643-1.3711-3.4232-1.337-4.3555 0.16211-0.21032 0.31632-0.34615 0.68331-0.39062 1.0605-2.5015-2.5508-6.5199-3.0228-9.8246-2.0151-2.925 0.85688-5.1338 3.5217-5.5641 6.521 0.0278 0.72147-0.16888 0.75279-0.63539 0.31175-0.46721-0.31123-0.98228-0.54864-1.517-0.718 2.0379-0.97307 3.1528-3.2858 2.9727-5.4902-0.0204-2.2251-1.4649-4.2791-3.4863-5.166-2.5338-1.175-5.3962-0.67864-8.0922-0.78711-0.99716 8e-3 -1.995-0.0159-2.9918 0.0117zm6.0078 4.5273c1.3232-0.1049 2.8336 0.71387 2.9047 2.1612 0.24238 1.2666-0.5917 2.5833-1.8699 2.8387-1.5002 0.40356-3.0734 0.19136-4.607 0.24619v-5.2461c1.1908 0 2.3815 1e-5 3.5723 0zm-16.402 4.8926c1.5557 0.0789 2.5766 1.6208 2.6172 3.0742h-6.1152c0.0393-1.613 1.3624-3.1759 3.0517-3.0864 0.14872-9e-3 0.29761 0.01 0.44634 0.0122zm33.229 8e-3c1.6306 0.0437 2.6738 1.6194 2.8535 3.1055 0.15328 1.5914 0.1712 3.2167-0.0194 4.8051-0.19141 1.4592-1.2399 2.9771-2.8341 3.0191-1.5238 0.20024-2.9151-0.94616-3.2564-2.3968-0.4325-1.5946-0.26162-3.2755-0.2367-4.9077 0.0962-1.5803 1.0043-3.4158 2.749-3.6037 0.24664-0.0334 0.496-0.0352 0.74414-0.0215zm11.332 5.4766c-0.98502 1.2474-1.97 2.4948-2.9551 3.7422 0.45034-1.9911 0.31858-4.0587 0.24585-6.0824 0.0108-0.34016-0.21605-1.0947-0.12995-1.1447 0.94639 1.1616 1.8928 2.3233 2.8392 3.485zm-27.863-0.83399c1.4642-0.0707 3.2297 0.56502 3.5794 2.154 0.38527 1.3164-0.16228 2.9634-1.572 3.3796-1.8865 0.64994-3.9193 0.34261-5.8746 0.41751v-5.9512h3.8672zm-9.543 5.2012c-0.77861-1.1738-2.5714-1.0846-3.5103-0.15438-0.9372 0.84182-2.16 1.3299-3.4295 1.2287-1.6386 0.0819-3.3415-0.98214-3.6265-2.6677 8e-3 -0.38285-0.40784-1.3283 0.19051-1.2484 3.0411-0.0322 6.0881 0.0631 9.1258-0.0449 0.44475-0.0647 0.89642-0.19789 1.25-0.48633v3.373z"
       fill="none"
       stroke="#30077b"
       stroke-width="1.765"
       style="mix-blend-mode:normal;white-space:pre"
       id="path6" />
    <path
       d="m57.229 161.4q1.068 0 1.6881-0.65457 0.63734-0.67179 0.63734-1.8087v-17.329h4.9954q0.8785 0 1.4297-0.53398 0.55121-0.55122 0.55121-1.4125 0-0.84405-0.55121-1.3953-0.55121-0.55121-1.4297-0.55121h-14.624q-0.8785 0-1.4469 0.55121-0.55121 0.55121-0.55121 1.3953 0 0.86127 0.55121 1.4125 0.56844 0.53398 1.4469 0.53398h4.9782v17.329q0 1.1369 0.62012 1.8087 0.62011 0.65457 1.7053 0.65457zm17.552-3.2212h0.24115v0.99908q0.03445 1.1024 0.62012 1.6709 0.60289 0.55122 1.5847 0.55122 0.99908 0 1.602-0.60289 0.62012-0.62012 0.62012-1.7914v-13.763q0-1.2402-0.62012-1.8431-0.60289-0.62012-1.6364-0.62012-1.068 0-1.6709 0.62012-0.60289 0.60289-0.60289 1.8431v8.7333q0 1.068-0.48231 1.9292-0.48231 0.84405-1.3436 1.3264-0.84404 0.48231-2.0154 0.48231-0.91295 0-1.6536-0.3445-0.72347-0.36174-1.1713-1.1369-0.43064-0.77515-0.43064-2.0498v-8.94q0-1.2402-0.62012-1.8431-0.60289-0.62012-1.6364-0.62012-1.0508 0-1.6709 0.62012-0.60289 0.60289-0.60289 1.8431v10.094q0 2.1187 0.75792 3.4795 0.77514 1.3436 2.1187 1.9982 1.3608 0.65457 3.135 0.65457 1.5675 0 2.6699-0.46509 1.1197-0.48231 1.8087-1.223 0.70624-0.75792 0.99908-1.602zm21.535 0.74069v-9.9391q0-3.0144-1.602-4.6509-1.5847-1.6536-4.4958-1.6536-1.3436 0-2.446 0.43064-1.1024 0.41341-1.8776 1.2058-0.77514 0.77514-1.1369 1.8603h-0.22393v-1.1369q-0.0689-2.2393-2.1876-2.2393-1.0335 0-1.6364 0.65457-0.60289 0.63734-0.60289 1.757v13.694q0 1.2058 0.58567 1.8604 0.60289 0.63734 1.6881 0.63734 2.2565 0 2.2565-2.4977v-7.8376q0-1.4297 0.46508-2.446 0.48232-1.0335 1.3436-1.5848 0.8785-0.55121 2.0498-0.55121 1.5675 0 2.4288 0.98185 0.86127 0.96462 0.86127 2.7561v8.6816q0 2.4977 2.2565 2.4977 2.2738 0 2.2738-2.4805zm-0.18579-5.6327q0 3.8757 2.3254 6.115 2.3254 2.2221 6.339 2.2221 1.7742 0 3.2556-0.43064 1.4986-0.44786 2.3943-1.223 0.63734-0.44787 0.98185-1.0163 0.36173-0.56844 0.36173-1.1713 0-0.7407-0.43063-1.1886-0.43064-0.46509-1.1541-0.46509-0.53399 0-0.8785 0.20671-0.34451 0.2067-1.0163 0.72347-0.31006 0.24116-0.65457 0.44786-0.32728 0.18948-0.72347 0.32728-0.39618 0.12058-0.86127 0.18948-0.44786 0.0517-0.98185 0.0517-2.0326 0-3.1867-1.1369-1.1541-1.1369-1.1713-3.0489v-0.79237h9.2673q1.2919 0 1.7914-0.58567 0.49954-0.60289 0.49954-2.136 0-2.2738-1.0163-4.0308-1.0163-1.757-2.8077-2.7733-1.7914-1.0163-4.1169-1.0163-2.446 0-4.3064 1.0508-1.8431 1.0508-2.8766 2.9283-1.0335 1.8776-1.0335 4.3925zm4.5992-3.0661v-0.0345q0-1.8431 0.99908-2.98t2.6872-1.1369q1.6192 0 2.5666 1.1197 0.96462 1.1196 0.96462 2.9972v0.0345zm11.734 8.027q0 1.4986 0.77515 2.2393 0.77514 0.74069 2.3254 0.74069h6.6662q2.4977 0 4.3236-0.80959 1.8431-0.82682 2.8594-2.3082 1.0163-1.4986 1.0163-3.514 0-1.602-0.65457-2.8422-0.65456-1.2402-1.8259-1.9982-1.1713-0.75791-2.7561-0.89572v-0.2067q1.2575-0.31006 2.1532-1.0163 0.91295-0.70625 1.3953-1.757 0.48231-1.0508 0.48231-2.3771 0-2.6699-1.8776-4.2202-1.8776-1.5675-5.0815-1.5675h-6.7007q-1.5503 0-2.3254 0.74069-0.77515 0.74069-0.77515 2.2393zm4.6164-10.749v-6.3045h4.1169q1.6364 0 2.5321 0.82682 0.91295 0.82683 0.91295 2.2738 0 1.5158-1.0852 2.3599-1.068 0.84405-3.4106 0.84405zm0 10.249v-7.0108h4.4097q2.0498 0 3.1178 0.96463 1.0852 0.9474 1.0852 2.6183 0 1.6709-1.2058 2.5494t-3.9618 0.8785zm20.657-15.193q-2.4977 0-4.4097 1.0163-1.8948 0.99908-2.9628 2.8939-1.068 1.8776-1.068 4.5131v2.1532q0 2.7044 1.068 4.5992 1.068 1.8948 2.9628 2.8939 1.912 0.99908 4.4097 0.99908 2.4977 0 4.3925-0.99908 1.8948-0.99907 2.9628-2.8939 1.068-1.8948 1.068-4.5992v-2.1876q0-2.6183-1.068-4.4958-1.068-1.8948-2.9628-2.8939-1.8948-0.99908-4.3925-0.99908zm0 3.5312q1.1713 0 2.0154 0.60289 0.84404 0.60289 1.2919 1.7225 0.44786 1.1024 0.44786 2.6527v2.0326q0 1.5503-0.44786 2.6699-0.44787 1.1196-1.2919 1.7225-0.84405 0.60289-2.0154 0.60289-1.7398 0-2.7733-1.3264-1.0163-1.3436-1.0163-3.669v-2.0326q0-1.5503 0.46508-2.6527 0.46509-1.1196 1.3091-1.7225 0.84404-0.60289 2.0154-0.60289zm7.1996 13.246q0 0.87849 0.58567 1.4814 0.60289 0.58567 1.4297 0.58567 0.74069 0 1.2747-0.36174 0.53399-0.36173 1.0852-1.2402l3.1867-4.892h0.24116l3.2556 4.9265q0.55121 0.82682 1.0852 1.2058 0.55122 0.36174 1.3264 0.36174 0.8096 0 1.4125-0.58567 0.60289-0.60289 0.60289-1.4986 0-0.46509-0.17226-0.86127-0.17225-0.41341-0.53398-0.79237l-4.4786-5.5638 4.582-5.7016q0.56844-0.60289 0.56844-1.4814 0-0.91295-0.58567-1.4986-0.58566-0.58566-1.4469-0.58566-0.7407 0-1.2575 0.36173-0.51676 0.36174-1.1024 1.223l-3.2556 4.892h-0.24116l-3.2556-4.892q-0.56844-0.86127-1.1024-1.223-0.51676-0.36173-1.2747-0.36173-0.82682 0-1.4469 0.60289-0.60289 0.58566-0.60289 1.4642 0 0.91295 0.60289 1.5503l4.5992 5.6499-4.5303 5.7361q-0.25838 0.27561-0.41341 0.6718-0.13781 0.39618-0.13781 0.82682z"
       fill="url(#linearGradient67)"
       stroke="#e59500"
       stroke-width=".565"
       style="mix-blend-mode:normal;white-space:pre"
       aria-label="TuneBox"
       id="path7" />
  </g>
</svg>
