<?xml version="1.0" encoding="UTF-8" standalone="no"?>
<!-- Created with Inkscape (http://www.inkscape.org/) -->

<svg
   width="32"
   height="32"
   viewBox="0 0 32 32"
   version="1.1"
   id="svg1"
   xmlns="http://www.w3.org/2000/svg"
   xmlns:svg="http://www.w3.org/2000/svg">
  <defs
     id="defs1" />
  <g
     id="layer1">
    <path
       id="path2"
       style="fill:#e59500;stroke:#30077b;stroke-width:0.581709;stroke-miterlimit:3.6"
       d="m 31.706877,11.876468 a 15.700563,11.545176 0 0 0 -7.850282,-9.9984156 15.700563,11.545176 0 0 0 -15.7005638,3e-7 15.700563,11.545176 0 0 0 -7.85028131,9.9984153 m 31.40112611,0 V 31.65655 H 0.30574903 V 11.876468" />
    <path
       id="path2-6-8"
       style="fill:#bf095e;stroke:#30077b;stroke-width:0.599086;stroke-miterlimit:3.6"
       d="M 15.059193,2.3769882 C 10.687689,2.6056605 6.1024044,4.4305518 3.52145,8.3589157 1.8935967,10.884162 2.3832726,14.071028 2.315353,16.948482 c 0,4.796914 0,9.593826 0,14.39074 9.127002,0 18.254004,0 27.381005,0 -0.04204,-6.631656 0.103224,-13.271054 -0.09336,-19.897628 C 29.026435,7.8110423 26.132844,5.1737617 23.063953,3.8314401 20.546782,2.694618 17.784094,2.2540955 15.059193,2.3769882 Z" />
    <path
       id="path2-6"
       style="fill:#0077b6;stroke:#30077b;stroke-width:0.628482;stroke-miterlimit:3.6"
       d="M 15.10336,4.3939274 C 11.542505,4.6346137 7.7623972,6.1000431 5.492849,9.4902577 4.1699993,11.276827 4.2980747,13.755904 4.3300223,15.962624 c 0,5.223526 0,10.447052 0,15.670578 7.7838847,0 15.5677697,0 23.3516547,0 C 27.653413,25.233683 27.757944,18.8286 27.613453,12.432757 27.142432,9.1671738 24.633992,6.9438869 22.163619,5.7551957 19.941283,4.6689883 17.50101,4.2641616 15.10336,4.3939274 Z" />
    <path
       id="path2-6-6"
       style="fill:#bf095e;stroke:#e59500;stroke-width:0.366035;stroke-miterlimit:3.6;stroke-dasharray:none"
       d="m 15.405217,30.582839 c -2.388095,-0.121811 -4.923232,-0.863467 -6.4453091,-2.57926 -0.887172,-0.904185 -0.801278,-2.158851 -0.7798522,-3.275674 0,-2.643634 0,-5.287268 0,-7.930902 5.2202793,0 10.4405573,0 15.6608363,0 -0.01895,3.238805 0.05115,6.480428 -0.04576,9.717374 -0.315892,1.652715 -1.998182,2.777923 -3.654943,3.379522 -1.490414,0.54973 -3.126989,0.754614 -4.734978,0.68894 z" />
    <path
       id="path2-6-6-3"
       style="fill:#30077b;stroke:#e59500;stroke-width:0.226755;stroke-miterlimit:3.6;stroke-dasharray:none"
       d="M 15.400024,8.627039 C 12.997882,8.6735117 10.447833,8.956472 8.9168023,9.6110858 8.024412,9.9560526 8.1108113,10.434737 8.1323634,10.86083 c 0,1.008607 0,2.017213 0,3.025819 5.2509846,0 10.5019696,0 15.7529556,0 -0.01906,-1.235678 0.05147,-2.47243 -0.04603,-3.707399 C 23.52154,9.5487023 21.829354,9.1194096 20.162848,8.8898853 18.663668,8.6801512 17.017467,8.6019824 15.400019,8.627039 Z" />
    <g
       id="g4"
       style="stroke:#30077b">
      <rect
         style="fill:#0077b6;stroke:#30077b;stroke-width:0.314732;stroke-miterlimit:3.6;stroke-dasharray:none"
         id="rect3"
         width="4.6703739"
         height="0.86076796"
         x="0.1722604"
         y="12.981866" />
      <rect
         style="fill:#0077b6;stroke:#30077b;stroke-width:0.314732;stroke-miterlimit:3.6;stroke-dasharray:none"
         id="rect3-5"
         width="4.6703739"
         height="0.86076796"
         x="0.1722604"
         y="14.405931" />
      <rect
         style="fill:#0077b6;stroke:#30077b;stroke-width:0.314732;stroke-miterlimit:3.6;stroke-dasharray:none"
         id="rect3-8"
         width="4.6703739"
         height="0.86076796"
         x="0.1722604"
         y="15.829997" />
    </g>
    <g
       id="g3"
       style="stroke:#30077b">
      <rect
         style="fill:#0077b6;stroke:#30077b;stroke-width:0.314732;stroke-miterlimit:3.6;stroke-dasharray:none"
         id="rect3-2"
         width="4.6703739"
         height="0.86076796"
         x="27.17226"
         y="13.157366" />
      <rect
         style="fill:#0077b6;stroke:#30077b;stroke-width:0.314732;stroke-miterlimit:3.6;stroke-dasharray:none"
         id="rect3-5-6"
         width="4.6703739"
         height="0.86076796"
         x="27.17226"
         y="14.581431" />
      <rect
         style="fill:#0077b6;stroke:#30077b;stroke-width:0.314732;stroke-miterlimit:3.6;stroke-dasharray:none"
         id="rect3-8-6"
         width="4.6703739"
         height="0.86076796"
         x="27.17226"
         y="16.005497" />
    </g>
    <path
       style="fill:#30077b;stroke:#30077b;stroke-width:0.333925;stroke-miterlimit:3.6;stroke-dasharray:none"
       id="path4"
       d="m 19.512286,-2.4481997 a 3.5059729,2.2588217 0 0 1 -1.752986,1.95619697 3.5059729,2.2588217 0 0 1 -3.505973,-6e-8 3.5059729,2.2588217 0 0 1 -1.752987,-1.95619691"
       transform="scale(1,-1)" />
    <rect
       style="fill:#0077b6;stroke:#30077b;stroke-width:0.382515;stroke-miterlimit:3.6;stroke-dasharray:none"
       id="rect6"
       width="3.6007216"
       height="2.9684854"
       x="0.19125734"
       y="28.840256" />
    <rect
       style="fill:#0077b6;stroke:#30077b;stroke-width:0.396309;stroke-miterlimit:3.6;stroke-dasharray:none"
       id="rect6-7"
       width="3.8244991"
       height="3"
       x="28"
       y="28.824499" />
  </g>
</svg>
